<svg width="100%"
     height="100%"
     viewBox="0 0 105 105"
     xmlns="http://www.w3.org/2000/svg"
     version="1.1" >
<path d="M89.274,15.409c3.48,5.233,3.447,10.962-0.096,16.182c-1.895,1.658-2.975,4.032-2.975,6.556
	c0,4.807,3.91,8.716,8.715,8.716c4.807,0,8.716-3.909,8.716-8.716c0-2.459-1.04-4.795-2.861-6.448
	c-3.656-5.31-3.677-11.138-0.057-16.457c1.843-1.655,2.896-4.003,2.896-6.483c0-4.807-3.91-8.716-8.715-8.716
	c-2.52,0-4.891,1.077-6.549,2.965c-5.281,3.595-11.063,3.599-16.347,0.01c-1.657-1.895-4.031-2.975-6.557-2.975
	c-4.806,0-8.715,3.909-8.715,8.716c0,4.806,3.909,8.716,8.715,8.716c2.459,0,4.796-1.04,6.45-2.861
	c5.35-3.686,11.219-3.682,16.564,0.012C88.714,14.903,88.987,15.166,89.274,15.409z" fill="#4049a9"></path>
<path d="M8.715,46.904c2.46,0,4.796-1.04,6.449-2.86c5.311-3.66,11.137-3.681,16.457-0.058
	c1.656,1.845,4.004,2.896,6.483,2.896c4.806,0,8.715-3.909,8.715-8.716c0-2.519-1.077-4.89-2.963-6.549
	c-3.591-5.277-3.595-11.066-0.011-16.347c1.894-1.657,2.975-4.032,2.975-6.556C46.82,3.91,42.91,0,38.104,0s-8.715,3.91-8.715,8.716
	c0,2.459,1.04,4.795,2.861,6.448c3.684,5.351,3.679,11.219-0.013,16.566c-0.278,0.254-0.541,0.526-0.784,0.814
	c-5.238,3.483-10.956,3.453-16.181-0.097c-1.659-1.894-4.033-2.974-6.557-2.974C3.909,29.475,0,33.384,0,38.189
	C0,42.994,3.909,46.904,8.715,46.904z" fill="#FFEA00"></path>
<path d="M40.352,84.455c-2.459,0-4.795,1.04-6.45,2.861c-5.348,3.687-11.215,3.683-16.564-0.012
	c-0.253-0.278-0.526-0.541-0.815-0.785c-3.48-5.233-3.446-10.962,0.097-16.182c1.894-1.657,2.974-4.031,2.974-6.557
	c0-4.806-3.909-8.715-8.715-8.715c-4.806,0-8.715,3.909-8.715,8.715c0,2.46,1.04,4.796,2.861,6.449
	C8.68,75.54,8.699,81.369,5.08,86.688c-1.843,1.655-2.896,4.002-2.896,6.482c0,4.806,3.909,8.716,8.715,8.716
	c2.52,0,4.891-1.077,6.549-2.966c5.282-3.594,11.063-3.599,16.346-0.009c1.658,1.895,4.032,2.975,6.557,2.975
	c4.805,0,8.715-3.91,8.715-8.716S45.157,84.455,40.352,84.455z" fill="#4049a9"></path>
<path d="M65.487,75.1c4.806,0,8.715-3.909,8.715-8.716c0-2.519-1.076-4.891-2.963-6.549
	c-3.591-5.277-3.594-11.066-0.01-16.346c1.893-1.657,2.973-4.031,2.973-6.557c0-4.806-3.909-8.716-8.715-8.716
	c-4.805,0-8.715,3.91-8.715,8.716c0,2.459,1.04,4.796,2.861,6.449c3.685,5.351,3.68,11.219-0.013,16.565
	c-0.278,0.254-0.541,0.526-0.784,0.814c-5.24,3.486-10.957,3.452-16.182-0.096c-1.658-1.895-4.032-2.975-6.557-2.975
	c-4.806,0-8.715,3.909-8.715,8.716c0,4.806,3.909,8.715,8.715,8.715c2.458,0,4.795-1.039,6.449-2.861
	c5.311-3.658,11.137-3.678,16.457-0.057C60.659,74.048,63.008,75.1,65.487,75.1z" fill="#4049a9"></path>
<path d="M102.044,64.429c0-4.806-3.91-8.716-8.715-8.716c-4.807,0-8.715,3.91-8.715,8.716
	c0,2.46,1.039,4.797,2.86,6.448c3.684,5.351,3.679,11.218-0.013,16.565c-1.813,1.653-2.848,3.985-2.848,6.438
	c0,4.807,3.908,8.716,8.715,8.716c4.805,0,8.715-3.909,8.715-8.716c0-2.52-1.077-4.892-2.965-6.549
	c-3.59-5.279-3.594-11.066-0.01-16.348C100.964,69.326,102.044,66.952,102.044,64.429z" fill="#4049a9"></path>
<path d="M66.423,84.434c-4.806,0-8.715,3.91-8.715,8.715c0,4.806,3.909,8.716,8.715,8.716s8.715-3.91,8.715-8.716
	C75.138,88.344,71.229,84.434,66.423,84.434z" fill="#4049a9"></path>
<path d="M11.752,19.328c4.805,0,8.715-3.909,8.715-8.716c0-4.805-3.91-8.714-8.715-8.714
	c-4.806,0-8.716,3.909-8.716,8.714C3.036,15.419,6.946,19.328,11.752,19.328z" fill="#FFEA00"></path>
</svg>