<?xml version="1.0" standalone="no"?>
<!DOCTYPE svg PUBLIC "-//W3C//DTD SVG 20010904//EN"
 "http://www.w3.org/TR/2001/REC-SVG-20010904/DTD/svg10.dtd">
<svg version="1.0" xmlns="http://www.w3.org/2000/svg"
 width="700.000000pt" height="700.000000pt" viewBox="0 0 700.000000 700.000000"
 preserveAspectRatio="xMidYMid meet">
<metadata>
Created by potrace 1.11, written by Peter Selinger 2001-2013
</metadata>
<g transform="translate(0.000000,700.000000) scale(0.100000,-0.100000)"
fill="#000000" stroke="none">
<path d="M2410 6985 c-200 -51 -350 -186 -417 -376 -20 -57 -27 -97 -29 -174
-5 -161 44 -292 153 -412 25 -26 53 -64 64 -83 11 -19 27 -48 37 -65 45 -75
88 -201 107 -315 8 -43 8 -205 0 -240 -3 -14 -8 -41 -11 -60 -25 -143 -131
-353 -212 -421 -80 -66 -235 -134 -375 -164 -63 -14 -269 -14 -337 0 -140 27
-311 111 -412 202 -115 103 -246 155 -392 156 -90 0 -129 -7 -210 -37 -167
-63 -292 -196 -352 -376 -26 -77 -26 -254 0 -330 60 -177 181 -309 346 -376
73 -29 127 -38 226 -37 142 1 263 50 380 154 98 87 248 160 399 195 258 59
569 -19 769 -193 240 -210 574 -210 789 1 78 76 89 92 127 166 109 216 65 485
-108 665 -73 76 -145 221 -181 367 -24 93 -30 221 -18 327 17 141 111 356 195
446 95 102 146 202 165 328 44 276 -123 547 -393 637 -82 28 -232 35 -310 15z"/>
<path d="M4265 6989 c-169 -31 -326 -143 -408 -290 -103 -184 -96 -416 17
-593 89 -139 245 -242 400 -263 122 -17 230 0 341 52 69 33 84 44 157 111 20
19 40 34 44 34 4 0 15 6 23 14 27 24 157 86 234 111 250 81 514 47 757 -98 86
-51 137 -108 186 -209 112 -225 134 -432 73 -658 -26 -94 -112 -270 -155 -316
-134 -142 -185 -259 -184 -424 1 -259 152 -468 400 -554 268 -94 584 46 706
311 97 214 55 457 -111 644 -151 169 -235 462 -201 699 22 160 108 353 201
455 125 136 183 325 154 495 -42 243 -235 437 -476 478 -187 32 -391 -37 -527
-178 -41 -42 -233 -135 -336 -162 -118 -31 -319 -31 -433 0 -143 39 -290 116
-368 192 -57 56 -141 104 -224 129 -75 23 -203 33 -270 20z"/>
<path d="M755 6872 c-198 -16 -349 -103 -454 -260 -153 -230 -123 -529 73
-727 109 -109 229 -163 381 -170 128 -6 247 26 351 97 251 168 331 503 182
765 -65 115 -178 211 -302 258 -65 25 -175 42 -231 37z"/>
<path d="M4242 5104 c-179 -38 -339 -171 -411 -342 -86 -204 -45 -445 105
-612 86 -97 157 -232 196 -377 31 -115 31 -316 0 -432 -40 -148 -121 -303
-195 -373 -76 -71 -295 -165 -427 -183 -53 -7 -221 -7 -241 -1 -8 3 -31 7 -52
11 -113 16 -319 113 -398 188 -194 181 -440 220 -678 106 -86 -42 -205 -161
-249 -249 -128 -260 -58 -563 168 -732 42 -32 147 -85 181 -92 13 -3 35 -8 49
-11 48 -13 176 -12 239 1 89 19 175 62 249 125 232 197 515 274 798 215 135
-28 313 -117 396 -198 150 -146 407 -194 608 -112 211 85 352 285 364 510 8
165 -46 306 -167 439 -118 128 -202 357 -205 556 -2 159 51 361 124 471 13 21
24 41 24 46 0 5 18 29 41 53 103 111 150 198 173 318 56 294 -121 584 -407
666 -76 22 -206 26 -285 9z"/>
<path d="M602 3314 c-207 -42 -375 -203 -438 -419 -52 -180 7 -408 142 -545
24 -25 44 -50 44 -55 0 -4 6 -16 14 -24 45 -51 127 -258 142 -356 11 -73 12
-205 3 -274 -20 -146 -114 -357 -199 -448 -71 -76 -122 -169 -150 -273 -15
-54 -15 -216 -1 -253 6 -15 9 -27 6 -27 -2 0 8 -28 21 -62 66 -160 192 -281
355 -340 93 -33 275 -33 371 0 76 27 162 80 230 145 54 51 220 137 318 166
209 61 435 41 640 -56 94 -45 132 -70 199 -132 60 -56 169 -114 251 -136 81
-21 248 -15 324 13 226 82 376 276 393 509 24 327 -224 605 -552 619 -169 7
-317 -52 -445 -175 -68 -66 -259 -152 -403 -181 -65 -13 -209 -17 -277 -7
-149 22 -366 116 -452 197 -79 74 -152 226 -188 390 -55 251 28 580 189 752
104 110 161 245 164 384 3 181 -48 309 -174 435 -137 138 -329 193 -527 153z"/>
<path d="M6090 3269 c-91 -23 -143 -48 -220 -105 -150 -110 -236 -298 -226
-491 8 -135 50 -240 139 -346 72 -85 92 -115 131 -194 38 -77 69 -171 87 -258
12 -62 16 -230 6 -275 -3 -14 -11 -50 -17 -80 -28 -127 -115 -300 -190 -382
-98 -104 -151 -229 -156 -368 -4 -115 10 -179 58 -280 91 -188 271 -311 482
-326 231 -18 451 110 556 321 110 222 70 475 -104 663 -156 170 -244 493 -197
727 31 154 111 331 187 412 119 127 173 257 175 413 3 374 -354 659 -711 569z"/>
<path d="M4305 1359 c-193 -39 -385 -219 -435 -409 -19 -69 -20 -80 -21 -152
-3 -281 197 -525 475 -578 195 -37 401 35 538 185 29 33 102 151 96 158 -1 2
2 10 9 18 18 22 44 168 42 229 -12 244 -166 450 -399 532 -65 23 -231 32 -305
17z"/>
</g>
</svg>
